<svg xmlns="http://www.w3.org/2000/svg" viewBox="0 -0.011011754162609577 72.48161315917969 100.0059585571289"><path d="M0 5l2.39 62.59a3.89 3.89 0 0 0 4.18 3.74l62.32-4.72a3.9 3.9 0 0 0 3.59-4L70.24 3.74A3.89 3.89 0 0 0 66.06 0L0 5" fill="#44e9be" opacity=".8"/><path fill="#3bbbf0" opacity=".8" d="M0 5.01l2.54 66.62 59.52 5.43-2.54-66.62L0 5.01"/><path fill="#1580fd" opacity=".8" d="M0 5.01l2.54 66.62 49.17 18.21-2.54-66.62L0 5.01"/><path d="M0 5l2.5 65.65a2.27 2.27 0 0 0 .79 1.62l31.56 26.82a3.8 3.8 0 0 0 6.26-3L39 39.74A3.82 3.82 0 0 0 37.62 37L0 5" fill="#413ef2"/></svg>